<?xml version="1.0" encoding="utf-8"?>
<!-- Generator: Adobe Illustrator 27.5.0, SVG Export Plug-In . SVG Version: 6.00 Build 0)  -->
<svg version="1.1" xmlns="http://www.w3.org/2000/svg" xmlns:xlink="http://www.w3.org/1999/xlink" x="0px" y="0px"
	 viewBox="0 0 750 500" style="enable-background:new 0 0 750 500;" xml:space="preserve">

<g id="OBJECTS">
	<path id="XMLID_2635_" style="fill:#F3F6FF;" d="M100.411,426.94c-28.929-20.384-3.315-48.678,18.11-44.241
		c21.425,4.437,49.405-33.891,32.04-68.976s25.378-120.17,94.492-78.406c69.115,41.764,178.357,49.257,214.054-0.204
		s139.383-5.792,131.161,56.385c-8.222,62.177,6.775,53.459,39.066,67.287c32.291,13.828,56.398,32.782,37.113,55.949
		c0,0,22.179-3.702,21.214,12.205H100.411z"/>
	<path id="XMLID_2634_" style="fill:#B8C9FF;" d="M690.213,439.141H81.437c-3.836,0-6.945-3.109-6.945-6.945v0
		c0-3.836,3.109-6.945,6.945-6.945h608.775c3.836,0,6.945,3.109,6.945,6.945v0C697.158,436.032,694.048,439.141,690.213,439.141z"/>
	<path id="XMLID_2633_" style="fill:#588E4D;" d="M127.399,417.437c-5.511-14.528-15.029-9.017-16.282-3.256
		c0,0-1.913-9.648-12.274-5.729c-10.36,3.92-2.736,15.043-2.736,15.043s-3.025-3.961-6.281,0c-3.256,3.961,1.503,6.673,1.503,6.673
		h44.336L127.399,417.437z"/>
	<path id="XMLID_2632_" style="fill:#588E4D;" d="M659.756,430.23c-7.782-10.876,5.963-12.688,8.1-7.707
		c0,0-6.694-12.864,3.905-14.088c10.599-1.224,13.102,7.915,10.148,15.011c0,0,7.26-5.314,8.612,0.33
		c1.352,5.643-5.8,7.707-5.8,7.707L659.756,430.23z"/>
	<g id="XMLID_2627_">
		<path id="XMLID_2631_" style="fill:#406D35;" d="M576.333,421.198c17.733-32.05,53.926-20.467,53.926-20.467l-39.714,23.962
			h-10.333L576.333,421.198z"/>
		<path id="XMLID_2630_" style="fill:#588E4D;" d="M584.019,428.387c11.54-15.96,35.833-12.102,35.833-12.102l-17.917,14.713
			l-17.917-1.609"/>
		<path id="XMLID_2629_" style="fill:#588E4D;" d="M566.358,422.181c19.396-60.741,44.332-62.961,44.332-62.961
			s-4.433,43.246-30.479,65.473L566.358,422.181z"/>
		<path id="XMLID_2628_" style="fill:#406D35;" d="M580.419,402.7c-2.977-24.635-19.048-27.339-19.048-27.339l4.987,46.821
			l14.061-0.983v-21.115"/>
	</g>
	<g id="XMLID_2660_">
		<g id="XMLID_2621_">
			<path id="XMLID_2626_" style="fill:#2D2D2D;" d="M184.387,430.168h-51.214c-5.326,0-9.643-4.317-9.643-9.643V313.947
				c0-5.326,4.317-9.643,9.643-9.643h51.214c5.326,0,9.643,4.317,9.643,9.643v106.579
				C194.029,425.851,189.712,430.168,184.387,430.168z"/>
			<rect id="XMLID_2625_" x="128.609" y="312.661" style="fill:#4C65BF;" width="60.341" height="95.791"/>
			<circle id="XMLID_2624_" style="fill:#1E1E1E;" cx="158.779" cy="419.068" r="6.601"/>
			<rect id="XMLID_2623_" x="193.453" y="319.319" style="fill:#1E1E1E;" width="2.572" height="13.202"/>
			<path id="XMLID_2622_" style="fill:#1E1E1E;" d="M165.858,309.269h-14.156c-0.519,0-0.94-0.421-0.94-0.94l0,0
				c0-0.519,0.421-0.94,0.94-0.94h14.156c0.519,0,0.941,0.421,0.941,0.94l0,0C166.798,308.848,166.377,309.269,165.858,309.269z"/>
		</g>
		<rect id="XMLID_2620_" x="141.865" y="326.523" style="fill:#98AAEA;" width="34.678" height="34.678"/>
		<rect id="XMLID_2619_" x="141.865" y="368.886" style="fill:#98AAEA;" width="34.678" height="7.685"/>
		<rect id="XMLID_2618_" x="141.865" y="381.578" style="fill:#98AAEA;" width="34.678" height="7.685"/>
	</g>
	<g id="XMLID_2239_">
		<path id="XMLID_2245_" style="fill:#383736;" d="M556.72,404.494h-335.33c-6.319,0-11.442-5.123-11.442-11.442V196.747
			c0-6.319,5.123-11.442,11.442-11.442h335.33c6.319,0,11.442,5.123,11.442,11.442v196.305
			C568.162,399.371,563.039,404.494,556.72,404.494z"/>
		<path id="XMLID_2244_" style="fill:#424242;" d="M564.011,403.494H214.1c-2.672,0-5.25,0.989-7.236,2.777l-24.567,22.116h413.519
			l-24.568-22.116C569.261,404.483,566.683,403.494,564.011,403.494z"/>
		<path id="XMLID_2243_" style="fill:#515150;" d="M533.474,407.637H244.637c-2.206,0-4.334,0.66-5.973,1.853l-20.279,14.754
			h341.342l-20.279-14.754C537.807,408.297,535.679,407.637,533.474,407.637z"/>
		<rect id="XMLID_2242_" x="228.416" y="196.605" style="fill:#6E80DB;" width="321.279" height="170.632"/>
		<path id="XMLID_2241_" style="fill:#1E1E1E;" d="M587.642,449.857H190.469c-4.514,0-8.173-3.659-8.173-8.173v-13.297h413.519
			v13.297C595.815,446.198,592.156,449.857,587.642,449.857z"/>
		
			<ellipse id="XMLID_2240_" transform="matrix(0.1602 -0.9871 0.9871 0.1602 -52.7835 706.9276)" style="fill:#1E1E1E;" cx="389.055" cy="384.484" rx="7.912" ry="7.912"/>
	</g>
	<path id="XMLID_2238_" style="opacity:0.17;fill:#383736;" d="M255.351,185.304c-23.158,22.147-15.103,67.945-15.103,67.945
		l43.295-3.25l26.178-64.7L255.351,185.304z"/>
	<ellipse id="XMLID_2237_" style="opacity:0.72;fill:#1E1E1E;" cx="492.396" cy="414.025" rx="49.829" ry="6.017"/>
	<g id="XMLID_2217_">
		<g id="XMLID_2233_">
			<g id="XMLID_2235_">
				<path id="XMLID_2236_" style="fill:#FFCF73;" d="M521.683,376.455h-73.291c-0.498,0-0.902-0.404-0.902-0.902v-10.816
					c0-0.498,0.404-0.902,0.902-0.902h73.291c0.498,0,0.902,0.404,0.902,0.902v10.816
					C522.585,376.051,522.181,376.455,521.683,376.455z"/>
			</g>
			<rect id="XMLID_2234_" x="447.49" y="368.493" style="fill:#FFE3B6;" width="75.095" height="3.303"/>
		</g>
		<g id="XMLID_2229_">
			<g id="XMLID_2231_">
				<path id="XMLID_2232_" style="fill:#FFCF73;" d="M511.385,389.076h-73.291c-0.498,0-0.902-0.404-0.902-0.902v-10.816
					c0-0.498,0.404-0.902,0.902-0.902h73.291c0.498,0,0.902,0.404,0.902,0.902v10.816
					C512.287,388.672,511.884,389.076,511.385,389.076z"/>
			</g>
			<rect id="XMLID_2230_" x="437.192" y="381.114" style="fill:#FFE3B6;" width="75.095" height="3.303"/>
		</g>
		<g id="XMLID_2225_">
			<g id="XMLID_2227_">
				<path id="XMLID_2228_" style="fill:#FFCF73;" d="M526.831,401.697h-73.291c-0.498,0-0.902-0.404-0.902-0.902v-10.816
					c0-0.498,0.404-0.902,0.902-0.902h73.291c0.498,0,0.902,0.404,0.902,0.902v10.816
					C527.734,401.293,527.33,401.697,526.831,401.697z"/>
			</g>
			<rect id="XMLID_2226_" x="452.638" y="393.735" style="fill:#FFE3B6;" width="75.095" height="3.303"/>
		</g>
		<g id="XMLID_2221_">
			<g id="XMLID_2223_">
				<path id="XMLID_2224_" style="fill:#FFCF73;" d="M534.549,414.318h-73.291c-0.498,0-0.902-0.404-0.902-0.902V402.6
					c0-0.498,0.404-0.902,0.902-0.902h73.291c0.498,0,0.902,0.404,0.902,0.902v10.816
					C535.451,413.914,535.047,414.318,534.549,414.318z"/>
			</g>
			<rect id="XMLID_2222_" x="460.356" y="406.356" style="fill:#FFE3B6;" width="75.095" height="3.303"/>
		</g>
		<polygon id="XMLID_2220_" style="opacity:0.5;fill:#FC9047;" points="448.392,376.455 512.288,381.326 512.288,376.455 		"/>
		<polygon id="XMLID_2219_" style="opacity:0.5;fill:#FC9047;" points="511.385,389.076 452.638,393.644 452.638,389.076 		"/>
		<polygon id="XMLID_2218_" style="opacity:0.5;fill:#FC9047;" points="527.734,401.697 460.356,406.319 460.356,401.697 		"/>
	</g>
	<g id="XMLID_2661_">
		<path id="XMLID_2211_" style="opacity:0.17;fill:#383736;" d="M559.702,213.73l-50.007,20.859c0,0-40.945-35.527-66.452-35.863
			l11.299-13.426h99.455l7.384,28.43"/>
		<path id="XMLID_2210_" style="fill:#D2DFFF;" d="M570.891,213.09l-43.07,16.71c0,0-7.57-12.53-26.5-23.89
			c-11.29-6.78-26.61-13.14-46.78-16.2l46.92-48.91C501.461,140.8,555.461,164.23,570.891,213.09z"/>
	</g>
	<polygon id="XMLID_2209_" style="opacity:0.17;fill:#383736;" points="549.771,246.85 568.231,279.057 568.231,255.109 	"/>
	<g id="XMLID_2138_">
		<g id="XMLID_2145_">
			<g id="XMLID_2151_">
				<g id="XMLID_2152_">
					<polygon id="XMLID_2208_" style="fill:#FFCA9F;" points="659.612,420.676 659.113,426.728 652.874,426.728 653.248,419.491 
											"/>
					<g id="XMLID_2206_">
						<path id="XMLID_2207_" style="fill:#FFCA9F;" d="M704.584,348.04c0,0,1.574,2.105,1.579,3.995
							c0.005,1.889,0.922,3.312,0.907,5.76c0.603,0.714,1.603-0.777,1.358-2.5c-0.245-1.723-0.096-1.314-0.096-1.314
							s2.783,3.502,3.779,4.943s1.938,0.35,1.183-0.742c-0.792-1.146-2.179-3.774-2.179-3.774s3.968,5.064,4.686,4.567
							c0.822-0.568-0.502-2.135-3.061-5.809c0,0,3.1,3.947,3.807,3.282c0.824-0.775-3.107-5.179-3.107-5.179s2.397,3.13,3.251,2.478
							c0.637-0.487-2.207-2.85-4.673-5.049c-2.466-2.198-2.99-1.245-4.072-2.981L704.584,348.04z"/>
					</g>
					<path id="XMLID_2205_" style="fill:#FFCF73;" d="M688.146,314.898l1.819,1.119c1.074,0.661,1.975,1.569,2.627,2.648
						l15.353,27.051l-3.225,2.891l-23.106-27.753L688.146,314.898z"/>
					<path id="XMLID_2204_" style="fill:#FFCF73;" d="M663.1,299.655l18.513,21.2l7.263-5.898l-16.45-22.799
						c-1.388-1.923-3.786-2.838-6.102-2.327l-3.822,1.327L663.1,299.655z"/>
					<rect id="XMLID_2203_" x="657.886" y="336.284" style="fill:#678CE8;" width="19.521" height="21.857"/>
					<polygon id="XMLID_2202_" style="fill:#678CE8;" points="668.769,337.579 664.2,380.358 650.796,380.358 650.26,337.579 					
						"/>
					<polygon id="XMLID_2201_" style="fill:#527FD8;" points="664.887,343.963 664.887,355.469 666.86,357.044 666.86,343.52 					
						"/>
					<polygon id="XMLID_2200_" style="fill:#678CE8;" points="682.118,337.579 681.44,380.358 668.036,380.358 667.5,337.579 					
						"/>
					<path id="XMLID_2199_" style="fill:#FFCF73;" d="M633.354,303.718l-17.101,17.664l4.089,8.011l21.993-18.84
						c1.688-1.447,2.354-3.758,1.695-5.881l-2.07-2.468l-4.553-0.134C635.884,302.025,634.413,302.623,633.354,303.718z"/>
					<path id="XMLID_2198_" style="fill:#464461;" d="M635.497,302.22c0.967-2.904,12.338-10.427,12.338-10.427l2.804-0.974
						c0,0,13.828-3.06,17.51-0.717l14.976,51.547l-34.054,11.373L635.497,302.22z"/>
					<path id="XMLID_2197_" style="fill:#2F2F47;" d="M678.559,325.926c0,0.056-0.002,0.112-0.003,0.169
						c-0.229,8.201-12.56,16.173-17.777,18.538c-5.252,2.381,5.978,0.391,5.978,0.391l15.76-5.472"/>
					<path id="XMLID_2196_" style="fill:#6B6B89;" d="M644.526,295.422c3.793,4.984,10.459,3.906,11.321-4.2
						c0.124-1.165-0.857-2.135-2.018-1.982c-2.1,0.277-5.5,1.126-8.957,3.668C644.076,293.495,643.927,294.636,644.526,295.422z"/>
					<polygon id="XMLID_2195_" style="fill:#678CE8;" points="664.2,380.358 659.542,422.916 652.906,422.916 650.796,380.358 					
						"/>
					<polygon id="XMLID_2194_" style="fill:#FFCA9F;" points="706.685,411.804 710.18,416.769 705.39,420.767 701.04,414.971 					
						"/>
					<path id="XMLID_2193_" style="fill:#678CE8;" d="M680.22,378.837l27.847,34.731l-5.095,4.253l-32.428-28.824
						c-1.263-1.123-2.043-2.692-2.174-4.377l-0.333-4.261L680.22,378.837z"/>
					<path id="XMLID_2192_" style="fill:#714837;" d="M634.422,270.524l1.265-0.192c0,0,1.46-3.004,3.298-4.476
						c1.838-1.472,8.672-2.271,8.604-2.261s6.618,3.208,6.618,3.208s3.025,6.142,3.201,8.549c0.042,0.569,0.038,1.169,0.001,1.777
						c-0.252,4.188-2.116,8.114-5.046,11.117c-0.874,0.895-2.333,1.896-2.414,1.709c-0.221-0.517-9.803-13.783-9.803-13.783
						l-5.16,6.219L634.422,270.524z"/>
					<path id="XMLID_2191_" style="fill:#FFAB8A;" d="M650.822,287.094l1.697,4.888c0.521,1.501-0.273,3.141-1.775,3.662l0,0
						c-1.501,0.521-3.141-0.273-3.662-1.775l-1.697-4.888l1.931-1.486l0.471-0.361l0.593-0.009L650.822,287.094z"/>
					<path id="XMLID_2190_" style="fill:#FFAB8A;" d="M636.035,281.683c-1.21-1.872-1.873-0.875-1.551,0.705
						c0.321,1.58,2.071,3.662,2.613,2.568l-0.404-2.66L636.035,281.683z"/>
					<path id="XMLID_2189_" style="fill:#FFCA9F;" d="M653.955,280.079c-0.171,5.728-3.504,11.371-8.235,12.09
						c-0.105,0.016-0.213,0.052-0.32,0.069c-0.112,0.003-0.221-0.001-0.331-0.008c-6.523-0.274-9.095-4.768-10.321-10.366
						c-1.708-8.319,5.97-10.405,8.33-10.842c0.124-0.022,0.232-0.039,0.325-0.055l0.038-0.004c0.091-0.001,0.203-0.005,0.33-0.006
						C646.174,270.951,654.104,271.587,653.955,280.079z"/>
					<g id="XMLID_2186_">
						<path id="XMLID_2188_" style="fill:#5C301D;" d="M638.902,282.409c0.103,0.681-0.062,1.271-0.37,1.318
							c-0.308,0.047-0.641-0.468-0.745-1.149c-0.104-0.681,0.062-1.272,0.37-1.318C638.465,281.213,638.799,281.727,638.902,282.409
							z"/>
						<path id="XMLID_2187_" style="fill:#5C301D;" d="M645.076,281.471c0.104,0.681-0.062,1.271-0.37,1.318
							c-0.308,0.047-0.641-0.468-0.745-1.149c-0.104-0.682,0.062-1.272,0.37-1.318C644.639,280.275,644.972,280.789,645.076,281.471
							z"/>
					</g>
					<path id="XMLID_2185_" style="fill:#FFAB8A;" d="M642.54,286.756l-0.575,0.165c-0.256,0.073-0.511-0.118-0.513-0.384
						l-0.023-3.251L642.54,286.756z"/>
					<path id="XMLID_2184_" style="fill:#FFFFFF;" d="M642.563,288.48l4.048-0.636c0,0-0.398,1.427-2.031,1.612
						C642.948,289.64,642.563,288.48,642.563,288.48z"/>
					<path id="XMLID_2183_" style="fill:#714837;" d="M652.367,276.893l-0.815,1.972l1.331,1.46l-0.463,6.117
						c0,0,3.254-7.508,3.151-8.187c-0.103-0.679-1.407-5.67-1.407-5.67l-3.201,0.486l0.068,2.359L652.367,276.893z"/>
					<g id="XMLID_2181_">
						<path id="XMLID_2182_" style="fill:#FFCA9F;" d="M651.063,279.394c0.784-2.807,2.237-1.824,2.449,0.273
							c0.212,2.098-1.165,5.377-2.266,4.223l-0.528-3.479L651.063,279.394z"/>
					</g>
					<path id="XMLID_2180_" style="fill:#527FD8;" d="M703.126,407.454c2.354,5.092-0.848,7.765-0.848,7.765l4.32-3.605
						L703.126,407.454z"/>
					<path id="XMLID_2179_" style="fill:#527FD8;" d="M652.497,415.056c0.216,4.356,4.629,5.418,4.629,5.418h-4.361L652.497,415.056
						z"/>
					<polygon id="XMLID_2178_" style="fill:#B4C4FC;" points="651.399,420.474 661.043,420.474 660.142,424.092 652.12,424.092 
											"/>
					<polygon id="XMLID_2177_" style="fill:#B4C4FC;" points="699.796,417.29 707.2,411.111 708.826,414.466 702.668,419.606 					
						"/>
					<g id="XMLID_2171_">
						<path id="XMLID_2176_" style="fill:#F05823;" d="M660.391,438.893h-19.903c0.023-0.364,0.099-0.694,0.22-0.994
							c0.006-0.006,0.006-0.006,0.006-0.006c0.798-1.988,3.56-2.826,6.698-4.178c3.617-1.56,4.253-5.426,4.253-5.426v-1.544
							c0-0.628,0.509-1.137,1.137-1.137h5.983c0.679,0,1.22,0.594,1.13,1.267c-0.04,0.3-0.098,0.566-0.16,0.79
							c-0.006,0-0.006,0-0.006,0c-0.138,0.509-0.294,0.809-0.294,0.809C660.391,431.346,660.391,438.893,660.391,438.893z"/>
						<path id="XMLID_2175_" style="fill:none;stroke:#FFFFFF;stroke-miterlimit:10;" d="M649.956,431.821
							c2.94,0.436,3.599,3.38,3.599,3.38"/>
						<path id="XMLID_2174_" style="fill:none;stroke:#FFFFFF;stroke-miterlimit:10;" d="M647.71,433.311
							c1.758,1.318,1.978,2.857,1.978,2.857"/>
						<path id="XMLID_2173_" style="fill:#C14727;" d="M660.391,438.893h-19.903c0.023-0.364,0.099-0.694,0.22-0.994
							c0.006-0.006,0.006-0.006,0.006-0.006s2.491,0.711,6.998,0.509c4.502-0.202,9.46,0.491,10.888-1.138
							c1.427-1.63,1.058-5.987,0.491-7.576c-0.295-0.809-1.491-1.052-2.607-1.104c1.202-0.11,2.612-0.358,3.265-0.919
							c-0.138,0.509-0.294,0.809-0.294,0.809C660.391,431.346,660.391,438.893,660.391,438.893z"/>
						<path id="XMLID_2172_" style="fill:#EAE9E8;" d="M640.488,438.893c-0.173,0.731,0,1.342,0,1.342h20.066
							c0,0,0.122-0.811-0.163-1.342C660.106,438.362,640.488,438.893,640.488,438.893z"/>
					</g>
					<g id="XMLID_2165_">
						<path id="XMLID_2170_" style="fill:#F05823;" d="M719.195,425.091l-15.28,12.753c-0.215-0.294-0.369-0.595-0.468-0.904
							c0.001-0.008,0.001-0.008,0.001-0.008c-0.661-2.037,0.922-4.451,2.465-7.5c1.777-3.516-0.212-6.891-0.212-6.891l-0.99-1.186
							c-0.402-0.482-0.338-1.199,0.144-1.602l4.593-3.834c0.521-0.435,1.317-0.326,1.68,0.249c0.162,0.256,0.287,0.498,0.383,0.709
							c-0.005,0.004-0.005,0.004-0.005,0.004c0.22,0.479,0.292,0.81,0.292,0.81C714.359,419.296,719.195,425.091,719.195,425.091z"
							/>
						<path id="XMLID_2169_" style="fill:none;stroke:#FFFFFF;stroke-miterlimit:10;" d="M706.652,426.348
							c2.536-1.549,4.929,0.289,4.929,0.289"/>
						<path id="XMLID_2168_" style="fill:none;stroke:#FFFFFF;stroke-miterlimit:10;" d="M705.883,428.931
							c2.195-0.114,3.349,0.926,3.349,0.926"/>
						<path id="XMLID_2167_" style="fill:#C14727;" d="M719.195,425.091l-15.28,12.753c-0.215-0.294-0.369-0.595-0.468-0.904
							c0.001-0.008,0.001-0.008,0.001-0.008s2.368-1.05,5.699-4.094c3.327-3.04,7.578-5.685,7.629-7.851
							c0.051-2.166-3.024-5.274-4.478-6.131c-0.745-0.432-1.819,0.148-2.708,0.823c0.852-0.855,1.776-1.949,1.918-2.798
							c0.22,0.479,0.292,0.81,0.292,0.81C714.359,419.296,719.195,425.091,719.195,425.091z"/>
						<path id="XMLID_2166_" style="fill:#EAE9E8;" d="M703.915,437.844c0.336,0.672,0.86,1.03,0.86,1.03l15.406-12.858
							c0,0-0.427-0.701-0.985-0.926C718.637,424.865,703.915,437.844,703.915,437.844z"/>
					</g>
					<path id="XMLID_2164_" style="fill:#F99273;" d="M651.227,280.296c0.354-1.289,1.087-1.064,1.361-0.757
						c0.275,0.307-0.058,2.801-0.836,3.335c0,0,0.894-1.679,0.401-2.598c-0.492-0.918-0.838,0.167-0.838,0.167L651.227,280.296z"/>
					<path id="XMLID_2163_" style="fill:#714837;" d="M634.657,280.761c-3.146-5.424-2.854-10.417-0.498-14.075
						s5.415-3.572,5.415-3.572s3.295,0.049,3.81,1.208c0.514,1.159,0.83,1.175,0.83,1.175s7.607,2.091,8.343,4.077
						c0.736,1.985-10.063,2.444-10.063,2.444l-5.078,1.655l-2.174,3.915L634.657,280.761z"/>
					<path id="XMLID_2162_" style="fill:#714837;" d="M635.327,276.432c2.055-2.617,5.474-2.686,7.594-2.512
						c2.12,0.174,4.527,0.89,4.527,0.89s-0.175-1.54-1.344-1.773c0,0,3.783,1.515,4.285,4.222c0.501,2.707,0.574,3.778,0.574,3.778
						s0.462-2.459,1.731-3.373c1.269-0.914,1.492-2.706,1.002-3.262c-0.49-0.557-3.826-4.421-3.826-4.421s-3.793-0.641-4.555-0.615
						c-0.762,0.026-5.403,1.001-6.363,1.462c-0.961,0.461-2.995,2.122-2.995,2.122l-1.336,1.961L635.327,276.432z"/>
					<path id="XMLID_2161_" style="fill:#6B6B89;" d="M683.917,340.01c-0.47-1.358-1.936-2.093-3.307-1.665
						c-9.949,3.101-31.466,9.8-33.369,11.264c-2.079,1.6,2.038,7.767,2.038,7.767s28.297-7.393,32.615-9.86
						C685.422,345.5,685.07,343.342,683.917,340.01z"/>
					<g id="XMLID_2155_">
						<g id="XMLID_2158_">
							<path id="XMLID_2160_" style="fill:#FFCA9F;" d="M602.91,300.908c0,0-1.256-2.06-1.097-3.786
								c0.159-1.726-0.556-3.106-0.33-5.341c-0.489-0.704-1.531,0.572-1.457,2.167c0.075,1.595-0.026,1.209-0.026,1.209
								s-2.239-3.44-3.025-4.842c-0.785-1.402-1.74-0.488-1.145,0.575c0.625,1.115,1.664,3.636,1.664,3.636
								s-3.187-4.969-3.886-4.577c-0.8,0.448,0.274,1.993,2.294,5.571c0,0-2.49-3.874-3.194-3.328c-0.819,0.636,2.391,5,2.391,5
								s-1.919-3.067-2.755-2.545c-0.624,0.389,1.77,2.795,3.833,5.017c2.063,2.222,2.624,1.396,3.462,3.076L602.91,300.908z"/>
							<path id="XMLID_2159_" style="fill:#FFB185;" d="M599.833,295.611c-1.209,1.31-0.428,3.674-0.428,3.674
								s-1.82-1.465-2.96-1.009c0,0,1.016-0.93,2.09-0.221C598.535,298.055,597.976,296.156,599.833,295.611z"/>
						</g>
						<g id="XMLID_2156_">
							<path id="XMLID_2157_" style="fill:#FFCF73;" d="M622.395,328.001l-1.629,1.284c-2.848,2.245-7.033,1.365-8.735-1.838
								l-12.772-25.591l2.63-2.424l16.15,20.7L622.395,328.001z"/>
						</g>
					</g>
					<path id="XMLID_2154_" style="fill:#FFDCA4;" d="M707.355,342.476l-5.427,3.922c0,0,1.328,2.797,2.661,2.78
						c1.333-0.017,4.969-3.421,4.969-3.421S709.192,343.512,707.355,342.476z"/>
					<path id="XMLID_2153_" style="fill:#FFDCA4;" d="M602.714,299.147c-2.806,0.974-4.014,2.83-4.014,2.83l1.614,2.918
						c0,0,4.365-2.329,4.565-3.332C605.079,300.56,603.539,298.86,602.714,299.147z"/>
				</g>
			</g>
			<path id="XMLID_2150_" style="fill:#FFCF73;" d="M654.973,289.475c0,0,16.989,54.419,19.836,66.887
				c0,0,11.673-2.317,15.315-6.972c0,0-6.249-19.181-8.511-25.154c-2.262-5.973-4.206-17.915-4.206-17.915l-5.775-10.979
				c0,0-2.438-4.258-3.482-5.24C665.749,287.842,654.973,289.475,654.973,289.475z"/>
			<path id="XMLID_2149_" style="fill:#FFCF73;" d="M643.931,293.741c0.665,6.586,8.146,41.867,8.748,48.672
				c0.602,6.806,3.964,18.993,3.964,18.993s-12.398,1.821-12.363,1.821s-5.135-37.215-5.935-42.893c-0.8-5.678-0.8-5.678-0.8-5.678
				l-4.781-10.328C632.763,304.327,641.22,294.88,643.931,293.741z"/>
			<polygon id="XMLID_2148_" style="fill:#FFDCA4;" points="664.887,306.322 672.071,303.596 673.454,306.911 665.687,309.013 			
				"/>
			<polygon id="XMLID_2147_" style="fill:#FFA076;" points="679.961,318.962 677.407,310.834 687.117,327.464 			"/>
			<polygon id="XMLID_2146_" style="fill:#FFA076;" points="637.545,314.655 637.097,309.988 626.028,324.521 			"/>
		</g>
		<g id="XMLID_2139_">
			<path id="XMLID_2144_" style="fill:#383736;" d="M601.652,274.559l-8.488-0.119c-0.976-0.014-1.779,0.767-1.792,1.743
				l-0.274,19.538c-0.014,0.976,0.767,1.779,1.743,1.792l8.488,0.119c0.976,0.014,1.779-0.767,1.792-1.743l0.274-19.537
				C603.408,275.375,602.628,274.573,601.652,274.559z"/>
			
				<rect id="XMLID_2143_" x="592.181" y="276.031" transform="matrix(0.9999 0.014 -0.014 0.9999 4.0553 -8.3527)" style="fill:#4C65BF;" width="10.163" height="17.562"/>
			<path id="XMLID_2142_" style="fill:#1E1E1E;" d="M598.322,295.554c-0.009,0.668-0.559,1.202-1.227,1.193
				c-0.668-0.009-1.202-0.559-1.193-1.227c0.009-0.668,0.559-1.202,1.227-1.193C597.797,294.337,598.332,294.886,598.322,295.554z"
				/>
			
				<rect id="XMLID_2141_" x="603.258" y="277.338" transform="matrix(0.9999 0.014 -0.014 0.9999 3.9578 -8.4195)" style="fill:#1E1E1E;" width="0.472" height="2.42"/>
			<path id="XMLID_2140_" style="fill:#1E1E1E;" d="M598.692,275.428l-2.595-0.036c-0.095-0.001-0.171-0.08-0.17-0.175l0,0
				c0.001-0.095,0.08-0.171,0.175-0.17l2.595,0.036c0.095,0.001,0.171,0.08,0.17,0.175l0,0
				C598.866,275.353,598.787,275.429,598.692,275.428z"/>
		</g>
	</g>
	<path id="XMLID_2136_" style="fill:#F5949B;" d="M496.857,99.214c40.5,0,68.143,32.143,68.143,32.143l11.774-6.429v32.143
		l-27.846-7.714l9-13.143c0,0-22.5-24.786-61.071-25.429V99.214z"/>
	<path id="XMLID_2135_" style="fill:#F5949B;" d="M279.494,115.643c-40.5,0-68.143,32.143-68.143,32.143l-11.774-6.429V173.5
		l27.846-7.714l-9-13.143c0,0,22.5-24.786,61.071-25.429V115.643z"/>
	<g id="XMLID_2657_">
		<path id="XMLID_2216_" style="fill:#FFBE5F;" d="M395.098,223.249h-73.84c-1.733,0-3.41,0.609-4.739,1.72l-25.08,20.96h111.051
			v-15.289C402.489,226.558,399.18,223.249,395.098,223.249z"/>
		<path id="XMLID_2215_" style="fill:#D2DFFF;" d="M438.781,178c0,0-31.67,13.3-59.25,52.94c-6.72,9.66-13.2,20.88-18.92,33.85
			L248.121,250c2.2-13.62,6.28-25.66,11.55-36.27v-0.01c25.54-51.47,78.82-69.15,78.82-69.15L438.781,178z"/>
		<path id="XMLID_2214_" style="fill:#B2C9F9;" d="M379.531,230.94c-6.72,9.66-13.2,20.88-18.92,33.85L248.121,250
			c2.2-13.62,6.28-25.66,11.55-36.27C253.441,244.37,309.401,240.54,379.531,230.94z"/>
		<g id="XMLID_2212_">
			<path id="XMLID_2213_" style="fill:#FFCF73;" d="M392.426,354.093H209.641c-5.558,0-10.063-4.506-10.063-10.063v-88.038
				c0-5.558,4.506-10.063,10.063-10.063h192.849v98.101C402.489,349.587,397.983,354.093,392.426,354.093z"/>
		</g>
		<path id="XMLID_2116_" style="fill:#FFBE5F;" d="M344.501,354.09h-134.86c-5.56,0-10.06-4.5-10.06-10.06v-88.04
			c0-5.56,4.5-10.06,10.06-10.06c-10.4,34.34,20.82,80.92,54.12,92.26C285.741,345.68,322.241,351.2,344.501,354.09z"/>
	</g>
	<g id="XMLID_2112_">
		<path id="XMLID_2115_" style="fill:#FFBE5F;" d="M247.288,381.175h-22.689c-0.532,0-1.048,0.187-1.456,0.528l-7.707,6.44h34.123
			v-4.698C249.559,382.191,248.542,381.175,247.288,381.175z"/>
		<g id="XMLID_2113_">
			<path id="XMLID_2114_" style="fill:#FFCF73;" d="M244.559,421.38h-52.35c-2.761,0-5-2.238-5-5v-23.237c0-2.761,2.238-5,5-5h57.35
				v28.237C249.559,419.141,247.321,421.38,244.559,421.38z"/>
		</g>
	</g>
	<g id="XMLID_2707_">
		<rect id="XMLID_2111_" x="430.366" y="234.589" style="fill:#98AAEA;" width="88.747" height="22.228"/>
		<rect id="XMLID_2110_" x="430.366" y="267.943" style="fill:#98AAEA;" width="88.747" height="22.228"/>
		<rect id="XMLID_2109_" x="430.366" y="301.297" style="fill:#98AAEA;" width="88.747" height="44.394"/>
	</g>
	<path id="XMLID_2108_" style="fill:#B2C9F9;" d="M501.321,205.91c-11.29-6.78-26.61-13.14-46.78-16.2l46.92-48.91
		C482.231,169.17,493.221,193.86,501.321,205.91z"/>
	<g id="XMLID_2662_">
		<path id="XMLID_2137_" style="fill:#D2DFFF;" d="M592.427,270.05l-11.675,2.536c0,0-5.545-6.659-14.1-14.629
			c-4.819-4.502-10.601-9.424-16.881-13.808l28.437-10.158c0,0,0.269,0.466,0.727,1.303
			C581.581,240.135,590.697,257.49,592.427,270.05z"/>
		<path id="XMLID_2107_" style="fill:#B2C9F9;" d="M578.935,235.293c-8.428,7.868-11.351,16.509-12.283,22.663
			c-4.819-4.502-10.601-9.424-16.881-13.808l28.437-10.158C578.208,233.99,578.477,234.456,578.935,235.293z"/>
	</g>
	<g id="XMLID_10_">
		<path id="XMLID_76_" style="fill:#EF6071;" d="M150.847,222.084c-5.966-8.507-16.732-6.548-20.085-1.234
			c-4.811,7.625-0.76,22.61-10.335,15.09c0,0,3.193,22.346,17.081,16.011c13.889-6.335,14.329-13.783,12.932-17.028
			C149.044,231.677,150.847,222.084,150.847,222.084z"/>
		<g id="XMLID_12_">
			<g id="XMLID_64_">
				<polygon id="XMLID_75_" style="fill:#FFCA9F;" points="173.066,331.02 173.194,337.015 179.344,337.39 179.41,330.234 				"/>
				<path id="XMLID_74_" style="fill:#2E2E42;" d="M149.689,303.199l32.963-0.447l0.685-7.725c0.343-3.864-2.556-7.255-6.426-7.518
					l-26.72-1.816c-4.632-0.315-8.671,3.122-9.101,7.745l-0.038,0.409C140.581,298.912,144.604,303.267,149.689,303.199z"/>
				<polygon id="XMLID_73_" style="fill:#2E2E42;" points="170.964,291.001 172.999,333.232 179.542,333.63 182.954,299.542 				"/>
				<path id="XMLID_72_" style="fill:#2E2E42;" d="M180.412,324.934c-1.76,5.253-5.872,5.003-5.872,5.003l5.546,0.338
					L180.412,324.934z"/>
				<polygon id="XMLID_71_" style="fill:#B4C4FC;" points="171.354,329.743 180.86,330.322 179.754,333.835 171.847,333.353 				"/>
				<g id="XMLID_65_">
					<path id="XMLID_70_" style="fill:#D55840;" d="M171.301,347.964l19.619,1.195c-0.001-0.36-0.055-0.69-0.157-0.993
						c-0.005-0.006-0.005-0.006-0.005-0.006c-0.667-2.007-3.339-2.999-6.352-4.521c-3.472-1.755-3.867-5.604-3.867-5.604
						l0.093-1.522c0.038-0.619-0.434-1.151-1.053-1.189l-5.898-0.359c-0.669-0.041-1.238,0.512-1.19,1.181
						c0.021,0.298,0.063,0.564,0.11,0.789c0.006,0,0.006,0,0.006,0c0.106,0.51,0.242,0.815,0.242,0.815
						C171.754,340.524,171.301,347.964,171.301,347.964z"/>
					<path id="XMLID_69_" style="fill:none;stroke:#FFFFFF;stroke-miterlimit:10;" d="M182.013,341.619
						c-2.924,0.253-3.751,3.116-3.751,3.116"/>
					<path id="XMLID_68_" style="fill:none;stroke:#FFFFFF;stroke-miterlimit:10;" d="M184.137,343.223
						c-1.812,1.194-2.121,2.697-2.121,2.697"/>
					<path id="XMLID_67_" style="fill:#A84335;" d="M171.301,347.964l19.619,1.195c-0.001-0.36-0.055-0.69-0.157-0.993
						c-0.005-0.006-0.005-0.006-0.005-0.006s-2.498,0.551-6.929,0.081c-4.425-0.47-9.355-0.084-10.664-1.776
						c-1.309-1.692-0.683-5.965-0.029-7.498c0.339-0.78,1.533-0.947,2.636-0.932c-1.178-0.18-2.553-0.51-3.163-1.102
						c0.106,0.51,0.242,0.815,0.242,0.815C171.754,340.524,171.301,347.964,171.301,347.964z"/>
					<path id="XMLID_66_" style="fill:#EAE9E8;" d="M190.92,349.159c0.127,0.731-0.081,1.323-0.081,1.323l-19.78-1.205
						c0,0-0.071-0.807,0.241-1.313C171.614,347.457,190.92,349.159,190.92,349.159z"/>
				</g>
			</g>
			<g id="XMLID_52_">
				<polygon id="XMLID_63_" style="fill:#FFCA9F;" points="159.727,333.393 160.042,339.381 166.2,339.564 166.043,332.41 				"/>
				<path id="XMLID_62_" style="fill:#464461;" d="M137.205,306.26l31.225-1.42l0.444-7.742c0.222-3.873-2.78-7.172-6.657-7.315
					l-28.395-4.004c-4.64-0.171-7.253,5.392-7.714,11.055l-0.025,0.411C124.888,305.191,132.124,306.488,137.205,306.26z"/>
				<polygon id="XMLID_61_" style="fill:#464461;" points="156.381,293.459 159.73,335.606 166.281,335.801 168.631,301.623 				"/>
				<path id="XMLID_60_" style="fill:#2E2E42;" d="M166.88,327.082c-1.596,5.305-5.713,5.183-5.713,5.183l5.554,0.165
					L166.88,327.082z"/>
				<polygon id="XMLID_59_" style="fill:#B4C4FC;" points="157.976,332.17 167.495,332.453 166.5,335.998 158.581,335.763 				"/>
				<g id="XMLID_53_">
					<path id="XMLID_58_" style="fill:#D55840;" d="M158.49,350.384l19.647,0.584c-0.012-0.36-0.077-0.688-0.188-0.988
						c-0.005-0.006-0.005-0.006-0.005-0.006c-0.729-1.986-3.431-2.894-6.489-4.321c-3.525-1.646-4.039-5.481-4.039-5.481
						l0.045-1.525c0.018-0.62-0.469-1.137-1.089-1.156l-5.906-0.176c-0.67-0.02-1.222,0.551-1.153,1.218
						c0.031,0.298,0.08,0.562,0.135,0.785c0.006,0,0.006,0,0.006,0c0.122,0.506,0.267,0.807,0.267,0.807
						C158.712,342.933,158.49,350.384,158.49,350.384z"/>
					<path id="XMLID_57_" style="fill:none;stroke:#FFFFFF;stroke-miterlimit:10;" d="M168.999,343.708
						c-2.915,0.344-3.652,3.231-3.652,3.231"/>
					<path id="XMLID_56_" style="fill:none;stroke:#FFFFFF;stroke-miterlimit:10;" d="M171.173,345.246
						c-1.774,1.25-2.036,2.762-2.036,2.762"/>
					<path id="XMLID_55_" style="fill:#A84335;" d="M158.49,350.384l19.647,0.584c-0.012-0.36-0.077-0.688-0.188-0.988
						c-0.005-0.006-0.005-0.006-0.005-0.006s-2.48,0.629-6.923,0.297c-4.438-0.332-9.353,0.207-10.714-1.443
						c-1.361-1.65-0.868-5.941-0.263-7.493c0.315-0.79,1.503-0.994,2.605-1.013c-1.183-0.144-2.568-0.43-3.196-1.003
						c0.122,0.506,0.267,0.807,0.267,0.807C158.712,342.933,158.49,350.384,158.49,350.384z"/>
					<path id="XMLID_54_" style="fill:#EAE9E8;" d="M178.137,350.967c0.15,0.727-0.039,1.325-0.039,1.325l-19.808-0.589
						c0,0-0.096-0.805,0.201-1.32C158.787,349.868,178.137,350.967,178.137,350.967z"/>
				</g>
			</g>
			<path id="XMLID_51_" style="fill:#B4C4FC;" d="M134.739,251.797l-9.676,23.967l-8.078-2.929l7.404-24.733
				c0.624-2.087,2.429-3.602,4.592-3.857h3.715L134.739,251.797z"/>
			<path id="XMLID_50_" style="fill:#EAE9E8;" d="M126.855,286.322c0,0,1.194,0.706,9.68,1.735c8.486,1.035,19.689-1.03,19.689-1.03
				c-0.531-2.542-2.738-3.816-2.738-3.816h-23.903c-1.104,0.308-2.048,1.826-2.484,2.622
				C126.945,286.126,126.855,286.322,126.855,286.322z"/>
			<path id="XMLID_49_" style="fill:#D6D5D4;" d="M126.855,286.322c0,0,1.194,0.706,9.68,1.735c8.486,1.035,19.689-1.03,19.689-1.03
				c-0.531-2.542-2.738-3.816-2.738-3.816h-1.422c2.399,3.131-2.441,4.612-7.164,4.352c-4.723-0.26-11.808,0.504-14.928-0.86
				c-1.237-0.536-2.192-0.791-2.871-0.87C126.945,286.126,126.855,286.322,126.855,286.322z"/>
			<path id="XMLID_48_" style="fill:#B4C4FC;" d="M159.626,238.286c-8.779,3.152-16.264,2.07-16.264,2.07h-2.985
				c0,0-11.891,2.214-13.809,4.784l3.014,38.071l23.902,0L159.626,238.286z"/>
			<g id="XMLID_41_">
				<path id="XMLID_47_" style="fill:#B4C4FC;" d="M156.224,257.942l22.761-24.612l-6.703-6.31l-24.63,19.407
					c-1.693,1.605,2.284,3.683,3.085,5.874l1.794,3.553L156.224,257.942z"/>
				<polygon id="XMLID_46_" style="fill:#FCA781;" points="179.524,232.721 184.431,228.351 177.424,223.994 173.616,227.357 
					179.057,232.956 				"/>
				<path id="XMLID_45_" style="fill:#FFCA9F;" d="M177.988,223.053l13.246-23.042l3.917,0.969l-9.531,25.653
					c-0.831,2.237-3.348,3.344-5.559,2.444l0,0C177.687,228.112,176.711,225.274,177.988,223.053z"/>
				<path id="XMLID_44_" style="fill:#FFCA9F;" d="M191.234,200.011c0,0-0.747-5.669-0.297-7.644
					c0.173-0.759,0.712-1.821,1.017-1.345c0.306,0.476,0.102,1.63,0.102,1.63s0.524-2.803,1.259-2.875
					c0.734-0.073,0.471,1.414,0.475,3.103c0,0,0.735-3.616,1.753-3.232c1.018,0.384-0.225,4.143-0.225,4.143
					s0.869-2.826,1.654-2.585c0.785,0.241-0.109,3.379-0.808,4.82c0,0,1.699-2.484,2.532-1.999c0.833,0.485-1.798,4.036-3.546,6.954
					S191.234,200.011,191.234,200.011z"/>
				<polygon id="XMLID_43_" style="fill:#EAE9E8;" points="176.1,237.669 166.921,229.728 172.802,226.52 180.311,233.619 				"/>
				<path id="XMLID_42_" style="fill:#FCA781;" d="M195.475,196.788c-1.586,0.582-2.115,2.062-2.115,2.062s-0.687-2.684-1.216-3.008
					c0,0,1.484,0.533,1.666,1.263C193.81,197.106,194.735,196.471,195.475,196.788z"/>
			</g>
			<path id="XMLID_40_" style="fill:#92ACF4;" d="M128.515,269.728c2.35,10.305,17.988,13.483,17.988,13.483l-16.92,0
				L128.515,269.728z"/>
			<path id="XMLID_39_" style="fill:#FFCA9F;" d="M142.436,288.624c3.126-1.037,5.247-1.347,6.308-0.276
				c1.061,1.071,1.379,3.839,2.015,4.683c0.636,0.844-2.398,0.251-2.525-0.62c0,0-5.027,2.047-7.934-0.685
				c-2.907-2.731,0-3.378,0-3.378L142.436,288.624z"/>
			<path id="XMLID_38_" style="fill:#FFCA9F;" d="M118.607,284.449l21.694,7.278l2.135-3.103L116.3,274.694l-0.95,1.923
				C113.839,279.676,115.373,283.364,118.607,284.449z"/>
			<polygon id="XMLID_37_" style="fill:#FCA781;" points="124.783,276.469 124.102,278.898 116.071,275.158 116.787,273.479 
				124.783,275.982 			"/>
			<path id="XMLID_36_" style="fill:#92ACF4;" d="M120.595,268.711c5.51,0.897,8.683-7.602,8.683-7.602l0.68,2.153l-3.39,8.774
				l-5.973-2.768V268.711z"/>
			<path id="XMLID_35_" style="fill:#EAE9E8;" d="M146.503,241.148c3.069,6.093-1.265,9.743-5.667,9.013
				c-4.401-0.73-6.687-4.984-6.097-8.523c0,0,2.652-1.238,6.097-1.786C144.28,239.305,146.503,241.148,146.503,241.148z"/>
			<path id="XMLID_34_" style="fill:#FFAB8A;" d="M138.175,237.403l1.094,4.624c0.336,1.42,1.76,2.299,3.18,1.963l0,0
				c1.42-0.336,2.299-1.76,1.964-3.18l-1.094-4.624l-2.229-0.2l-0.543-0.047l-0.464,0.285L138.175,237.403z"/>
			<path id="XMLID_33_" style="fill:#FFAB8A;" d="M151.029,229.064c0.725-1.914,1.512-1.147,1.529,0.333
				c0.016,1.48-1.153,3.687-1.851,2.81l-0.15-2.466L151.029,229.064z"/>
			<g id="XMLID_31_">
				<path id="XMLID_32_" style="fill:#FFAB8A;" d="M135.105,230.222c-0.952-1.811-1.641-0.954-1.477,0.517
					c0.164,1.471,1.593,3.52,2.179,2.564l-0.15-2.466L135.105,230.222z"/>
			</g>
			<path id="XMLID_30_" style="fill:#F99273;" d="M135.021,230.615c-0.539-0.791-1.012-0.619-0.947-0.138
				c0.065,0.48,0.419,1.846,0.973,2.129c0,0-0.863-1.583-0.604-1.972C134.701,230.244,135.021,230.615,135.021,230.615z"/>
			<path id="XMLID_29_" style="fill:#FFCA9F;" d="M135.05,230.534c0.921,5.176,2.639,10.546,9.246,10.012
				c5.63-0.454,6.594-5.741,6.883-10.991c0.331-7.787-6.506-8.627-8.579-8.701c-0.109-0.003-0.203-0.004-0.285-0.005l-0.033,0.002
				c-0.078,0.011-0.174,0.023-0.282,0.04C139.947,221.217,133.773,222.845,135.05,230.534z"/>
			<g id="XMLID_26_">
				<path id="XMLID_28_" style="fill:#5C301D;" d="M147.108,230.36c0.038,0.632,0.301,1.13,0.586,1.112
					c0.285-0.017,0.485-0.544,0.447-1.175c-0.039-0.632-0.301-1.13-0.586-1.112C147.27,229.202,147.069,229.728,147.108,230.36z"/>
				<path id="XMLID_27_" style="fill:#5C301D;" d="M140.678,230.752c0.038,0.632,0.301,1.13,0.586,1.112
					c0.285-0.017,0.485-0.544,0.447-1.175c-0.038-0.632-0.301-1.13-0.586-1.112C140.839,229.594,140.639,230.12,140.678,230.752z"/>
			</g>
			<path id="XMLID_25_" style="fill:#FFAB8A;" d="M145.16,234.936l0.548,0.037c0.244,0.016,0.436-0.204,0.386-0.443l-0.607-2.923
				L145.16,234.936z"/>
			<path id="XMLID_24_" style="fill:#FFFFFF;" d="M146.654,236.415l-3.757,0.21c0,0,0.632,1.204,2.134,1.055
				C146.532,237.531,146.654,236.415,146.654,236.415z"/>
			<path id="XMLID_23_" style="fill:#EF6071;" d="M151.461,227.953l-0.384,2.905l-0.714-4.287l-1.095-1.843l-1.951-1.544
				c0,0-4.281,2.864-7.611,2.633c0,0,0.889-0.561,1.775-2.278c0,0-2.488,2.262-5.108,3.175c0,0-1.617,2.739-1.168,4.371
				c0,0-2.067-0.797-2.215-3.076c-0.148-2.279,1.38-6.06,1.635-6.438c0.254-0.377,4.085-2.419,4.672-2.454
				c0.587-0.036,5.841,0.873,5.841,0.873s3.85,1.356,4.368,1.541c0.518,0.185,1.542,2.509,1.732,2.787
				C151.429,224.596,151.461,227.953,151.461,227.953z"/>
			<polygon id="XMLID_22_" style="fill:#FFCA9F;" points="166.993,277.578 168.033,281.57 166.301,287.919 160.382,286.676 
				161.261,281.464 159.299,278.069 			"/>
			<polygon id="XMLID_21_" style="fill:#EAE9E8;" points="167.126,271.534 168.033,277.2 158.741,280.583 156.596,275.057 			"/>
			<polygon id="XMLID_20_" style="fill:#EAE9E8;" points="127.465,271.534 116.986,267.228 116.787,273.479 125.863,276.747 			"/>
			<path id="XMLID_19_" style="fill:#F99273;" d="M151.264,229.438c0.439-0.851,0.93-0.737,0.923-0.252
				c-0.006,0.485-0.191,1.883-0.707,2.231c0,0,0.664-1.676,0.36-2.031C151.537,229.031,151.264,229.438,151.264,229.438z"/>
			<g id="XMLID_13_">
				<path id="XMLID_18_" style="fill:#E3F5FC;" d="M180.725,291.186H146.67c-1.266,0-2.214-1.16-1.962-2.401l3.074-15.146
					c0.189-0.933,1.01-1.604,1.962-1.604h34.054c1.266,0,2.214,1.16,1.962,2.401l-3.074,15.146
					C182.498,290.516,181.677,291.186,180.725,291.186z"/>
				<path id="XMLID_17_" style="fill:#F8FDFF;" d="M182.016,291.186h-34.054c-1.266,0-2.214-1.16-1.962-2.401l3.074-15.146
					c0.189-0.933,1.01-1.604,1.962-1.604h34.054c1.266,0,2.214,1.16,1.962,2.401l-3.074,15.146
					C183.789,290.516,182.969,291.186,182.016,291.186z"/>
				<path id="XMLID_16_" style="fill:#E3F5FC;" d="M177.098,294.385h-34.943c-0.883,0-1.599-0.716-1.599-1.599l0,0
					c0-0.883,0.716-1.599,1.599-1.599h34.943c0.883,0,1.599,0.716,1.599,1.599l0,0C178.697,293.669,177.981,294.385,177.098,294.385
					z"/>
				<path id="XMLID_15_" style="fill:#F8FDFF;" d="M182.054,294.385h-34.943c-0.883,0-1.599-0.716-1.599-1.599l0,0
					c0-0.883,0.716-1.599,1.599-1.599h34.943c0.883,0,1.599,0.716,1.599,1.599l0,0C183.653,293.669,182.937,294.385,182.054,294.385
					z"/>
				<circle id="XMLID_14_" style="fill:#E3F5FC;" cx="167.404" cy="281.896" r="2.17"/>
			</g>
		</g>
		<path id="XMLID_11_" style="fill:#EF6071;" d="M147.624,222.216c-3.468,6.385-10.177,10.32-13.067,7.176
			c-2.89-3.144,1.249-7.176,1.249-7.176l4.867-1.025L147.624,222.216z"/>
	</g>
	<path id="XMLID_5_" style="fill:#E1E7FF;" d="M397.806,77.526h92.903c0,0,3.423-13.202-13.691-11.246
		c0,0,0.653-16.136-18.01-17.114c-18.663-0.978-11.299,16.136-11.299,16.136s-4.43-25.507-28.878-16.176
		c-24.448,9.331-6.357,19.599-6.357,19.599S388.026,65.791,397.806,77.526z"/>
	<path id="XMLID_4_" style="fill:#E1E7FF;" d="M301.042,99.598h62.86c0,0,2.316-8.933-9.264-7.609c0,0,0.442-10.918-12.186-11.58
		c-12.628-0.662-7.645,10.918-7.645,10.918s-2.998-17.258-19.54-10.945c-16.542,6.313-4.301,13.261-4.301,13.261
		S294.425,91.658,301.042,99.598z"/>
</g>
</svg>
